<?xml version="1.0" encoding="utf-8"?>
<svg version="1.1" id="Layer_1" xmlns="http://www.w3.org/2000/svg" xmlns:xlink="http://www.w3.org/1999/xlink" x="0px" y="0px"
	 viewBox="0 0 1156 210" style="enable-background:new 0 0 1156 210;" xml:space="preserve">
<style type="text/css">
	.st0{fill:#FFFFFF;stroke:#232e3c;stroke-width:1.225;stroke-miterlimit:10;}
	.st1{fill:#69340F;}
	.st2{fill:#FFFFFF;}
	.st3{fill:#232e3c;}
</style>
<line class="st0" x1="68.05" y1="186.56" x2="1081.04" y2="186.56"/>
<g id="_x36_VZ2oI_1_">
	<g>
		<path class="st1" d="M1117.19,143.61c-277.26,0.96-554.52,1.98-831.78,3.11c-48.68,0.2-97.36,0.4-146.05,0.6
			c-40.2,0.16-80.42,0.06-120.53,0.06c-10.78,0-9.78,0.65-12.55-1.17c-2.18-1.43-1.87-11.36-1.9-15.75
			c-0.06-7.35-1.49-16.21,1.59-18.71c3.41-2.77,15.88-2.5,21.75-9.97c3.23-4.19,5.39-8.84,6.96-13.87
			c7.37-23.84,12.72-48.19,19.16-72.25c2.08-7.72,3.58-9.07,11.54-9.24c17.74-0.42,17.44-0.34,22.2,16.59
			c6.37,22.76,12.42,45.62,19.99,68.04c3.48,10.31,9.97,17.52,21.24,18.87c12.59,1.47,22.64-6.13,26.63-18.99
			c7.42-23.81,12.54-48.24,19.06-72.28c4.26-15.7,1.81-12.99,17.2-13.43c1.1-0.02,2.23,0.05,3.33,0.05
			c8.31,0.05,9.3-0.79,11.58,7.12c5.88,20.19,12.28,42.47,18.28,62.63c1.91,6.39,4.07,12.79,6.74,18.89
			c4.99,11.4,15.61,14.96,27.13,14.63c9.41-0.27,15.74-1.29,22.04-11.07c2.25-3.5,3.94-7.34,5.18-11.31
			c7.42-23.86,12.74-48.25,19.2-72.36c2.08-7.72,3.6-9.07,11.56-9.26c17.71-0.42,17.42-0.32,22.17,16.61
			c6.39,22.76,12.42,45.62,19.99,68.04c3.5,10.31,10,17.52,21.24,18.84c12.59,1.49,22.64-6.13,26.63-18.96
			c7.42-23.81,12.54-48.24,19.06-72.3c4.26-15.68,1.81-12.96,17.2-13.4c1.1-0.02,2.23,0.05,3.36,0.05c5.68,0,9.69,1.41,11.27,6.86
			c5.85,20.14,12.57,42.75,18.57,62.86c1.99,6.68,4.24,13.33,7.06,19.65c2.18,4.88,5.95,8.94,10.73,11.35
			c16.42,8.27,36.04,8.11,53.88,8.11c49.95,0,35.97-0.55,65.6-0.55c16.2,0,41.1,2.99,52.56-11.87c3.23-4.19,5.39-8.84,6.96-13.87
			c7.37-23.84,12.72-48.19,19.16-72.25c2.08-7.72,3.58-9.07,11.54-9.24c17.74-0.42,17.44-0.34,22.2,16.59
			c6.37,22.76,12.42,45.62,19.99,68.04c3.48,10.31,9.97,17.52,21.24,18.87c12.59,1.47,22.64-6.13,26.63-18.99
			c7.42-23.81,12.54-48.24,19.06-72.28c4.26-15.7,1.81-12.99,17.2-13.43c1.1-0.02,2.23,0.05,3.33,0.05
			c8.31,0.05,9.95,1.3,12.23,9.21c5.88,20.19,11.64,40.38,17.64,60.54c1.91,6.39,4.07,12.79,6.74,18.89
			c5.63,12.86,26.43,19.38,38.98,13.06c3.31-1.67,6.22-4.12,8.48-7.06c3.21-4.19,5.37-8.84,6.93-13.89
			c7.4-23.81,12.72-48.17,19.16-72.23c2.08-7.72,3.6-9.07,11.56-9.26c17.71-0.42,17.42-0.32,22.17,16.61
			c6.39,22.76,12.42,45.62,19.99,68.04c3.5,10.31,10,17.52,21.24,18.84c12.59,1.49,22.64-6.13,26.63-18.96
			c7.42-23.81,12.95-48.13,19.06-72.3c3.56-14.1,1.81-12.96,17.2-13.4c1.1-0.02,2.23,0.05,3.36,0.05c5.68,0,9.51,1.08,11.09,6.53
			c5.85,20.14,12.75,43.08,18.75,63.2c1.91,6.42,4.07,12.81,6.74,18.91c3.92,8.95,14.14,12.98,23.48,14.11
			c2.93,0.35,4.94,2.59,5.23,5.52c0.74,7.64,0.62,20,0.94,27.81c0.12,2.96-2.22,5.42-5.18,5.44
			C1136.86,143.03,1119.55,143.61,1117.19,143.61z"/>
	</g>
</g>
<rect x="47.27" y="165.41" width="42.29" height="42.29"/>
<rect x="170.48" y="165.41" width="42.29" height="42.29"/>
<rect x="297.97" y="165.41" width="42.29" height="42.29"/>
<rect x="419.49" y="165.41" width="42.29" height="42.29"/>
<rect x="688.12" y="165.41" width="42.29" height="42.29"/>
<rect x="811.3" y="165.41" width="42.29" height="42.29"/>
<rect x="940.25" y="165.41" width="42.29" height="42.29"/>
<rect x="1061.84" y="165.41" width="42.29" height="42.29"/>
<g>
	<path class="st2" d="M74.52,183.74v-5.21h-4.46v16.24h2.81v2.7h-8.84v-2.7h2.76v-16.24h-4.44v5.21h-2.67v-7.91h17.51v7.91H74.52z"
		/>
</g>
<g>
	<path class="st2" d="M202.81,186.58c0,2.2-0.49,4.16-1.46,5.87c-0.97,1.71-2.31,3.04-4.03,3.97c-1.71,0.93-3.66,1.4-5.84,1.4
		c-2.15,0-4.07-0.49-5.74-1.46c-1.67-0.97-2.98-2.32-3.91-4.03s-1.4-3.65-1.4-5.81c0-2.13,0.48-4.04,1.43-5.71s2.27-2.98,3.94-3.93
		c1.67-0.94,3.58-1.41,5.71-1.41c2.22,0,4.19,0.49,5.9,1.46c1.71,0.97,3.04,2.3,3.98,3.98
		C202.34,182.59,202.81,184.48,202.81,186.58z M191.62,194.93c1.48,0,2.81-0.39,3.98-1.16c1.17-0.78,2.07-1.8,2.71-3.09
		c0.64-1.28,0.95-2.65,0.95-4.11c0-1.48-0.34-2.86-1.01-4.13s-1.61-2.27-2.79-3c-1.19-0.73-2.53-1.1-4.02-1.1
		c-1.46,0-2.76,0.36-3.89,1.07s-2,1.7-2.62,2.95c-0.62,1.25-0.93,2.65-0.93,4.18c0,1.63,0.31,3.08,0.93,4.35
		c0.62,1.27,1.5,2.26,2.66,2.97C188.74,194.58,190.08,194.93,191.62,194.93z"/>
</g>
<g>
	<path class="st2" d="M326.05,181.41c0,1.01-0.22,1.91-0.67,2.68c-0.45,0.78-1.1,1.37-1.97,1.78c1.22,0.43,2.15,1.1,2.79,2.02
		s0.97,2,0.97,3.25c0,2.06-0.75,3.62-2.26,4.7c-1.51,1.08-3.76,1.62-6.77,1.62h-7.49v-2.7h2.67v-16.24h-2.67v-2.7h7.61
		c2.63,0,4.59,0.46,5.87,1.38C325.4,178.12,326.05,179.52,326.05,181.41z M322.82,181.58c0-1.01-0.36-1.78-1.08-2.29
		s-1.73-0.77-3.04-0.77h-2.14v6.32h2.17C321.45,184.84,322.82,183.75,322.82,181.58z M323.85,191.08c0-1.2-0.42-2.09-1.27-2.68
		c-0.85-0.59-2.16-0.88-3.94-0.88h-2.08v7.24h1.29c1.29,0,2.35-0.08,3.19-0.24c0.83-0.16,1.51-0.5,2.03-1.03
		C323.59,192.96,323.85,192.16,323.85,191.08z"/>
</g>
<g>
	<path class="st2" d="M438.53,178.52v16.24h7.11v-6.7h2.68v9.4h-15.85v-2.7h2.79v-16.24h-2.79v-2.7h8.84v2.7H438.53z"/>
</g>
<g>
	<path class="st2" d="M716.7,181.5c0,1.39-0.39,2.55-1.18,3.5c-0.79,0.94-1.88,1.59-3.29,1.95l3.82,7.82h2.64v2.7h-4.85l-4.78-10.08
		h-3.03v7.38h2.76v2.7h-8.96v-2.7h2.93v-16.24h-2.93v-2.7h8.99c2.79,0,4.79,0.45,6.03,1.36C716.08,178.1,716.7,179.53,716.7,181.5z
		 M713.33,181.44c0-1-0.32-1.74-0.95-2.21s-1.63-0.7-3-0.7h-3.34v6.14h3.14c1.41,0,2.45-0.24,3.13-0.73
		C712.99,183.45,713.33,182.62,713.33,181.44z"/>
</g>
<g>
	<path class="st2" d="M843.64,186.58c0,2.2-0.49,4.16-1.46,5.87c-0.97,1.71-2.31,3.04-4.03,3.97c-1.71,0.93-3.66,1.4-5.84,1.4
		c-2.15,0-4.07-0.49-5.74-1.46c-1.68-0.97-2.98-2.32-3.91-4.03c-0.93-1.72-1.4-3.65-1.4-5.81c0-2.13,0.48-4.04,1.43-5.71
		s2.27-2.98,3.94-3.93c1.67-0.94,3.58-1.41,5.71-1.41c2.22,0,4.19,0.49,5.9,1.46c1.71,0.97,3.04,2.3,3.98,3.98
		S843.64,184.48,843.64,186.58z M832.44,194.93c1.48,0,2.81-0.39,3.98-1.16c1.17-0.78,2.07-1.8,2.71-3.09
		c0.64-1.28,0.96-2.65,0.96-4.11c0-1.48-0.34-2.86-1.01-4.13s-1.61-2.27-2.79-3c-1.19-0.73-2.53-1.1-4.02-1.1
		c-1.46,0-2.76,0.36-3.89,1.07s-2,1.7-2.62,2.95s-0.93,2.65-0.93,4.18c0,1.63,0.31,3.08,0.93,4.35s1.5,2.26,2.66,2.97
		S830.91,194.93,832.44,194.93z"/>
</g>
<g>
	<path class="st2" d="M966.94,178.52h-3.09v-2.7h8.87v2.7h-3.17v19.17h-3.36l-10.38-18.49v15.56h3.1v2.7h-8.86v-2.7h3.09v-16.24
		h-3.09v-2.7h7.38l9.5,16.81V178.52z"/>
</g>
<g>
	<path class="st2" d="M1089.01,182.14v-3.62h-9.26v6.45h8.05v2.7h-8.05v7.09h9.26v-3.95h2.67v6.65h-17.99v-2.7h2.79v-16.24h-2.79
		v-2.7h17.99v6.32H1089.01z"/>
</g>
<g>
	<path class="st3" d="M498.7,49.54v0.24c0,0.96,0.64,1.52,0.64,2.24v0.08c0,0.24-0.16,0.56-0.48,0.8c-0.32,0.4-0.64,0.56-1.04,0.56
		c-0.8,0-1.52-0.96-1.52-2.48V50.5c0-3.91,5.59-11.1,24.76-16.93c8.07-2.4,16.3-3.91,24.52-4.63c1.12-0.08,1.84-1.12,2.88-2.72
		c1.44-2.16,3.2-5.19,3.91-6.07c0.32-0.48,0.4-0.16,0.8-0.16c0.56,0,1.04,0.4,1.04,1.28v0.32c0,0.24-0.08,0.56-0.16,0.88
		c-1.12,2.96-0.72,0.08-3.2,4.55c-0.24,0.4-0.32,0.64-0.4,0.88c0,0.56,0.48,0.56,1.04,0.56h2c10.7,0,27.4,0.56,34.91,8.15
		c2.16,2.16,3.04,4.39,3.04,6.87v0.88c-1.92,17.33-51.52,39.46-69.42,39.46h-0.4c-5.75,0-9.67-1.84-9.67-5.83v-0.56
		c0.24-1.6,1.04-3.67,2.64-6.07c5.59-8.23,15.02-11.66,16.46-14.46c3.99-8.07,8.31-16.14,13.26-23.88c0.24-0.4,0.32-0.72,0.32-0.88
		v-0.16c0-0.4-0.4-0.48-0.8-0.48s-0.88,0.08-1.2,0.08c-11.82,1.2-35.95,6.39-43.38,16.61C498.86,48.74,498.7,49.22,498.7,49.54z
		 M516.52,80.62c1.44,0.48,3.27,0.72,5.35,0.72c20.21,0,65.74-22.85,67.34-37.22v-0.64c0-1.44-0.48-2.88-1.52-4.15
		c-6.63-7.67-20.61-8.39-31.23-8.39h-6.79c-1.12,0-1.76,0.56-2.4,1.52c-3.2,4.87-10.3,17.09-12.62,22.21v0.24
		c-0.08,0.08-0.08,0.08-0.08,0.16c0,0.16,0.08,0.32,0.32,0.32c0.16,0,0.4-0.08,0.64-0.24c8.15-4.23,16.61-7.35,25.08-10.38
		c0.08-0.08,0.24-0.08,0.32-0.08c0.56,0,0.88,0.48,0.88,1.12v0.16c0,0.4-0.24,0.8-0.72,0.96c-5.59,2.24-27.96,10.3-29.32,13.58
		c-2,4.71-4.95,11.02-6.55,16.46c-0.16,0.56-0.8,0.88-1.36,0.88s-1.12-0.32-1.12-0.88v-0.32c0.88-2.72,4.31-10.78,5.43-13.5
		c0.08-0.16,0.16-0.32,0.16-0.4c0-0.16-0.08-0.24-0.24-0.24c-0.16,0-0.48,0.16-0.8,0.32c-4.39,2.88-11.98,9.27-13.02,14.62v0.4
		C514.28,79.1,515.08,80.14,516.52,80.62z"/>
	<path class="st3" d="M597.99,48.9c0.24-0.16,0.48-0.32,0.8-0.32c0.72,0,1.44,0.72,1.44,1.36c0,0.4-0.24,0.64-0.72,1.12
		c-2.72,2.88-5.03,7.83-5.03,10.94c0,1.12,0.48,1.92,1.68,1.92c0.32,0,0.72-0.08,1.2-0.24c5.83-1.68,15.02-7.75,20.13-12.22
		c0.16-0.16,0.32-0.16,0.48-0.16c0.48,0,0.88,0.4,0.88,0.8c0,0.16,0,0.32-0.08,0.4c-3.91,4.39-16.14,12.22-21.25,13.74
		c-0.72,0.16-1.36,0.32-1.92,0.32c-2.48,0-3.99-1.68-3.99-4.23C591.6,58.33,595.43,51.7,597.99,48.9z M602.62,43.23h-0.24
		c-0.24,0-0.48-0.16-0.48-0.4v-0.32c0-0.96,0.88-2.64,3.36-4.79c0.16-0.24,0.56-0.32,0.88-0.32c0.8,0,1.92,0.4,2.16,1.04
		c0,0.08,0,0.16-0.08,0.24C607.49,39.8,604.78,43.23,602.62,43.23z"/>
	<path class="st3" d="M639.12,51.46c0.4,0,0.8,0.32,0.8,0.8c0,0.16-0.08,0.32-0.32,0.56c-5.59,5.43-18.37,13.74-24.04,13.74
		c-2.24,0-3.83-1.68-3.83-3.91c0-5.03,9.11-18.21,15.18-18.21c1.12,0,1.76,0.64,1.76,1.76c0,4.87-9.11,11.1-13.02,13.26
		c-0.88,0.48-0.88,1.04-1.04,1.84c-0.24,1.76,0.32,2.8,2.08,2.8c5.51,0,19.49-10.3,21.97-12.46
		C638.81,51.46,638.96,51.46,639.12,51.46z M618.68,55.37l4.07-3.75c1.84-2,3.04-3.75,2.64-4.15s-1.92,0.8-3.91,2.64
		c-1.84,1.76-4.55,5.27-5.19,6.71C616.68,56.81,617.96,55.93,618.68,55.37z"/>
	<path class="st3" d="M630.58,78.7c0,0.32,0.08,0.72,0.4,1.12c0.16,0.16,0.16,0.32,0.16,0.56c0,0.8-1.2,1.52-2.16,1.52
		c-0.72,0-1.28-0.32-1.28-1.28c0-5.35,11.42-31.39,14.06-37.14l0.48-1.04l0.24-0.56c0-0.08,0.08-0.16,0.08-0.24
		c0-0.32-0.4-0.4-0.8-0.4c-0.24,0-0.48,0-0.72,0.08c-3.35,0.64-6.63,1.52-9.83,2.72c-0.08,0-0.16,0.08-0.24,0.08
		c-0.56,0-1.04-0.8-1.04-1.52c0-0.4,0.16-0.72,0.56-0.88c3.51-1.12,7.43-2.08,11.02-2.64c1.68-0.4,2.48-0.48,3.04-1.52
		c1.2-2.56,9.03-18.69,11.02-18.69c0.64,0,1.2,0.56,1.2,1.2v0.24c-0.16,0.72-1.76,4.15-2.32,5.35c-0.56,1.28-0.96,1.44-1.28,1.44
		h-0.4c-0.08,0-0.16,0-0.24,0.08c-1.92,3.35-3.67,6.55-5.35,9.99c-0.08,0.24-0.16,0.48-0.16,0.64s0.08,0.32,0.4,0.32
		c1.68-0.08,3.67-0.16,5.83-0.16c1.2,0,2.56,0,3.83,0.16c0.4,0,0.56,0.4,0.56,0.8c0,0.56-0.32,1.28-0.72,1.28h-0.08
		c-1.52,0-2.96-0.16-4.47-0.16c-1.92,0-3.83,0.16-5.75,0.4c-1.04,0.16-1.28,0.64-1.68,1.36c-5.27,11.34-10.22,23.4-14.06,35.39
		C630.74,77.74,630.58,78.22,630.58,78.7z"/>
</g>
</svg>
